<svg xmlns="http://www.w3.org/2000/svg" data-name="Layer 2" viewBox="-5.0 -10.0 110.0 135.0" x="0px" y="0px"><rect x="25.1012658" y="5.0126582" width="50" height="10"/><rect x="25.1012658" y="85.0126582" width="50" height="10"/><rect x="15.1012658" y="15.1476716" width="10" height="10"/><rect x="45.1442841" y="55.049039" width="10" height="10"/><rect x="35.1442841" y="65.0892632" width="10" height="10"/><rect x="45.1442841" y="35.0892632" width="10" height="10"/><rect x="35.1442841" y="25.0892632" width="10" height="10"/><rect x="55.1442841" y="45.049039" width="10" height="10"/><rect x="15.1012658" y="75.0126582" width="10" height="10"/><rect x="75.1012658" y="75.0126582" width="10" height="10"/><rect x="75.1012658" y="15.1476716" width="10" height="10"/><rect x="85.1012658" y="25.0126582" width="10" height="50.028481"/><path d="M15.1012658,25.0126582H5.1012658c.0095011,16.6761475-.0095016,33.3238525-.0000005,50H15.1012658c-.0095015-16.6761475,.0095015-33.3238525,0-50Z"/><text x="0.0" y="117.5" font-size="5.0" font-weight="bold" font-family="Arbeit Regular, Helvetica, Arial-Unicode, Arial, Sans-serif" fill="#000000">Created by Nazar</text><text x="0.0" y="122.5" font-size="5.0" font-weight="bold" font-family="Arbeit Regular, Helvetica, Arial-Unicode, Arial, Sans-serif" fill="#000000">from Noun Project</text></svg>